<svg width="230" height="230" viewBox="0 0 230 230" fill="none" xmlns="http://www.w3.org/2000/svg">
<circle cx="115" cy="115" r="115" fill="#00463C"/>
<path fill-rule="evenodd" clip-rule="evenodd" d="M115.06 40.7C106.054 40.7 97.2482 42.3 88.9426 45.4C80.6371 48.5 73.2322 53.1 66.928 58.8C60.6238 64.5 55.7205 71.3 52.3182 78.6C48.9159 86 47.2148 93.9 47.2148 101.9C47.2148 109.9 45.0133 106.9 42.2115 106.9C39.4096 106.9 37.2081 104.7 37.2081 101.9C37.2081 92.5 39.2095 83.2 43.2121 74.5C47.1147 65.8 52.9186 58 60.2235 51.4C67.4283 44.8 76.034 39.6 85.4403 36.1C94.8466 32.6 104.953 30.7 115.06 30.7C125.167 30.7 135.274 32.5 144.68 36.1C154.086 39.6 162.692 44.8 169.897 51.4C177.101 58 182.905 65.8 186.908 74.5C190.811 83.2 192.912 92.5 192.912 101.9C192 105.5 190.711 106.9 187.909 106.9C185.107 106.9 182.905 104.7 182.905 101.9C182.905 93.9 181.204 86 177.802 78.6C174.4 71.2 169.496 64.5 163.192 58.8C156.888 53.1 149.383 48.5 141.177 45.4C132.872 42.3 124.066 40.7 115.06 40.7Z" fill="#FCF1DC"/>
<path fill-rule="evenodd" clip-rule="evenodd" d="M115.06 189.6C124.066 189.6 132.872 188 141.177 184.9C149.483 181.8 156.888 177.2 163.192 171.5C169.496 165.8 174.4 159 177.802 151.7C181.204 144.3 182.905 136.4 182.905 128.4C182.905 120.4 185.107 123.4 187.909 123.4C190.711 123.4 192.912 125.6 192.912 128.4C192.912 137.8 190.911 147.1 186.908 155.8C183.005 164.5 177.202 172.3 169.897 178.9C162.692 185.5 154.086 190.7 144.68 194.2C135.274 197.7 125.167 199.6 115.06 199.6C104.953 199.6 94.8466 197.8 85.4403 194.2C76.034 190.7 67.4283 185.5 60.2235 178.9C53.0187 172.3 47.2148 164.5 43.2121 155.8C39.3095 147.1 37.2081 137.8 37.2081 128.4C37.2081 119 39.4096 123.4 42.2115 123.4C45.0133 123.4 47.2148 125.6 47.2148 128.4C47.2148 136.4 48.9159 144.3 52.3182 151.7C55.7205 159.1 60.6238 165.8 66.928 171.5C73.2322 177.2 80.7372 181.8 88.9426 184.9C97.2482 188 106.054 189.6 115.06 189.6Z" fill="#FCF1DC"/>
<path fill-rule="evenodd" clip-rule="evenodd" d="M172.598 86.1C173.999 85 176.101 85.2 177.302 86.6L187.909 99.9L198.516 86.6C199.617 85.2 201.718 84.9 203.219 86.1C204.62 87.2 204.92 89.3 203.719 90.8L190.51 107.3C189.91 108.1 188.909 108.5 187.909 108.5C186.908 108.5 185.907 108 185.307 107.3L172.098 90.8C170.997 89.4 171.198 87.3 172.598 86.1Z" fill="#FCF1DC"/>
<path fill-rule="evenodd" clip-rule="evenodd" d="M57.5217 140.9C56.1208 142 54.0194 141.8 52.8186 140.4L42.2115 127.1L31.6044 140.4C30.5037 141.8 28.4023 142.1 26.9013 140.9C25.5003 139.8 25.2001 137.7 26.4009 136.2L39.6097 119.7C40.2101 118.9 41.2108 118.5 42.2115 118.5C43.2121 118.5 44.2128 119 44.8132 119.7L58.022 136.2C59.1228 137.6 58.9226 139.7 57.5217 140.9Z" fill="#FCF1DC"/>
<mask id="mask0_435_1836" style="mask-type:luminance" maskUnits="userSpaceOnUse" x="45" y="45" width="141" height="141">
<path d="M185.007 45.3H45.1134V185.1H185.007V45.3Z" fill="white"/>
</mask>
<g mask="url(#mask0_435_1836)">
<path opacity="0.2" d="M162.592 137.4C158.789 145.4 153.085 152.4 145.881 157.6L140.777 152.5C140.277 152 139.576 151.6 138.776 151.4L127.068 148.3C126.067 148 125.167 147.4 124.566 146.5C123.966 145.6 123.766 144.5 123.866 143.5L125.167 134.7C125.267 134 125.567 133.2 126.067 132.7C126.568 132.1 127.168 131.6 127.869 131.4L144.48 124.5C145.28 124.2 146.081 124.1 146.881 124.2C147.682 124.3 148.482 124.7 149.083 125.3L162.592 137.6V137.4Z" fill="#FCF1DC"/>
<path opacity="0.2" d="M145.681 85.7C145.681 86.7 145.28 87.8 144.58 88.5L132.472 102.6C131.771 103.4 130.771 103.9 129.77 104.1L112.558 106.4C111.458 106.5 110.357 106.3 109.456 105.6L98.6492 98.5C98.1488 98.2 97.6485 97.9 97.0481 97.8C96.4477 97.7 95.8473 97.7 95.347 97.8C94.7466 97.9 94.2462 98.1 93.7459 98.4C93.2455 98.7 92.8453 99.1 92.5451 99.6L81.1375 116.7C80.6371 117.4 80.437 118.3 80.437 119.1V138.9C80.3369 139.6 80.1368 140.3 79.7365 141C79.4363 141.6 78.936 142.2 78.3356 142.6L72.932 146.2C65.5271 136.1 62.0247 123.8 62.9253 111.3C63.8259 98.9 69.2295 87.2 77.9353 78.3C86.7412 69.4 98.349 64 110.857 63C123.266 62 135.674 65.4 145.881 72.7V85.8L145.681 85.7Z" fill="#FCF1DC"/>
<path fill-rule="evenodd" clip-rule="evenodd" d="M115.06 68.1C89.0427 68.1 68.0287 89.2 68.0287 115.1C68.0287 141 89.1428 162.1 115.06 162.1C140.977 162.1 162.091 141 162.091 115.1C162.091 89.2 140.977 68.1 115.06 68.1ZM57.2215 115.2C57.2215 83.3 83.1388 57.4 115.06 57.4C146.981 57.4 172.899 83.3 172.899 115.2C172.899 147.1 146.981 173 115.06 173C83.1388 173 57.2215 147.1 57.2215 115.2Z" fill="#FCF1DC"/>
<path fill-rule="evenodd" clip-rule="evenodd" d="M145.881 129.4L130.37 135.8L129.27 143.2L140.077 146C141.778 146.4 143.279 147.3 144.48 148.5L149.583 153.6C151.685 155.7 151.685 159.1 149.583 161.2C147.482 163.3 144.079 163.3 141.978 161.2L137.075 156.3L125.667 153.3C123.366 152.7 121.364 151.2 119.963 149.2C118.663 147.2 118.062 144.8 118.462 142.4L119.763 133.6C119.963 131.9 120.664 130.4 121.765 129C122.765 127.7 124.166 126.6 125.667 126L142.278 119.1C143.979 118.4 145.881 118.2 147.682 118.5C149.483 118.8 151.284 119.9 152.685 121.1M152.685 121.1L166.194 133.4C168.396 135.4 168.496 138.8 166.494 141C164.493 143.2 161.091 143.3 158.889 141.3L145.881 129.4" fill="#FCF1DC"/>
<path d="M73.1321 149.9C71.6311 149.9 70.1301 149.1 69.3296 147.7C68.1288 145.6 68.8293 142.9 70.9307 141.6L75.7339 138.8V119.1C75.7339 117.4 76.3343 115.7 77.3349 114.3L88.7425 97.2C89.443 96.2 90.2435 95.4 91.2442 94.7C92.2449 94.1 93.3456 93.6 94.5464 93.4C95.7472 93.2 96.948 93.2 98.0487 93.4C99.1495 93.7 100.25 94.1 101.151 94.8L111.858 101.8C111.858 101.8 111.958 101.8 112.058 101.9L129.17 99.6L141.278 85.5V72.5C141.278 70 143.279 68.1 145.681 68.1C148.082 68.1 150.083 70.1 150.083 72.5V85.6C150.083 87.7 149.283 89.7 147.982 91.3L135.874 105.4C134.473 107 132.472 108.1 130.37 108.4L113.159 110.7C110.957 111 108.756 110.5 106.955 109.2L96.2475 102.1C96.2475 102.1 96.2475 102.1 96.1475 102.1L84.7399 119.1V138.8C84.6398 140.2 84.2395 141.7 83.5391 142.9C82.8386 144.2 81.8379 145.3 80.6371 146.1C80.6371 146.1 80.5371 146.1 80.437 146.2L75.4337 149.1C74.7332 149.5 73.9327 149.7 73.2322 149.7L73.1321 149.9Z" fill="#FCF1DC"/>
</g>
</svg>
